<?xml version="1.0" encoding="UTF-8"?>
<svg version="1.1" xmlns="http://www.w3.org/2000/svg" width="1500" height="461">
<path d="M0 0 C1.32040283 -0.00143509 1.32040283 -0.00143509 2.66748047 -0.00289917 C4.53027416 -0.00358026 6.39307023 -0.00173093 8.25585938 0.00244141 C11.11333528 0.00779066 13.970654 0.00249401 16.828125 -0.00390625 C18.63541701 -0.00324546 20.44270893 -0.00196427 22.25 0 C23.10835449 -0.00202423 23.96670898 -0.00404846 24.85107422 -0.00613403 C30.89508255 0.01785378 30.89508255 0.01785378 33.125 1.1328125 C34.48142757 1.36134694 35.84509982 1.54780814 37.2109375 1.7109375 C76.4342409 6.67371678 112.65698728 21.04011526 144.125 45.1328125 C145.3315625 46.04933594 145.3315625 46.04933594 146.5625 46.984375 C182.96338783 75.33506648 209.46182473 114.74425205 222.125 159.1328125 C222.36444336 159.9695752 222.60388672 160.80633789 222.85058594 161.66845703 C238.32867849 217.30157331 230.08601404 278.05075447 202.25 328.3828125 C195.17924169 340.31735287 187.20650781 351.64153994 178.125 362.1328125 C177.43148438 362.9371875 176.73796875 363.7415625 176.0234375 364.5703125 C141.57999681 403.64796157 96.29234455 427.88629778 45.125 437.1328125 C44.43051758 437.26413574 43.73603516 437.39545898 43.02050781 437.53076172 C-10.54698033 447.24923985 -69.4964362 431.25327813 -113.79785156 400.81152344 C-117.61804705 398.0711813 -121.25829117 395.1375337 -124.875 392.1328125 C-125.43348633 391.67438965 -125.99197266 391.2159668 -126.56738281 390.74365234 C-139.2268149 380.32342343 -150.83037201 369.12734982 -160.875 356.1328125 C-161.58914062 355.235625 -162.30328125 354.3384375 -163.0390625 353.4140625 C-192.18288461 315.9287224 -208.37015296 268.28792276 -208.25 220.8828125 C-208.24978851 220.10478271 -208.24957703 219.32675293 -208.24935913 218.52514648 C-208.20975979 203.8009481 -206.78966217 189.58457782 -203.875 175.1328125 C-203.70371582 174.25351074 -203.53243164 173.37420898 -203.35595703 172.46826172 C-197.79424137 144.81996339 -185.55815048 116.88564577 -168.875 94.1328125 C-168.15828125 93.13378906 -167.4415625 92.13476562 -166.703125 91.10546875 C-162.4288798 85.26154385 -157.91279149 79.77291546 -153.0078125 74.44921875 C-151.00422121 72.27315714 -149.05814496 70.0589111 -147.125 67.8203125 C-144.478556 64.79317354 -141.84431445 61.84761428 -138.875 59.1328125 C-138.215 59.1328125 -137.555 59.1328125 -136.875 59.1328125 C-136.875 58.4728125 -136.875 57.8128125 -136.875 57.1328125 C-125.45065395 46.32599867 -111.50273035 36.8690635 -97.875 29.1328125 C-97.14635742 28.71531738 -96.41771484 28.29782227 -95.66699219 27.86767578 C-70.53315349 13.629269 -42.51162854 4.25190161 -13.69140625 1.45703125 C-1.01377652 -0.00239076 -1.01377652 -0.00239076 0 0 Z M-134.875 138.1328125 C-138.52214534 142.53453964 -138.99393842 147.56819341 -138.875 153.1328125 C-137.91131464 158.94568056 -135.21680527 162.28188121 -130.69140625 165.90625 C-124.47204836 170.10598845 -118.35011575 169.94107957 -111.07421875 168.62695312 C-108.15819073 167.9315926 -105.26784297 167.1689366 -102.375 166.3828125 C-93.1361724 164.01673713 -83.93960226 162.18415964 -74.5 160.8203125 C-73.40236328 160.66143555 -72.30472656 160.50255859 -71.17382812 160.33886719 C-59.90397147 158.77265314 -48.82178478 157.97034117 -37.44140625 157.9296875 C-36.16941879 157.92398743 -34.89743134 157.91828735 -33.5868988 157.91241455 C-30.89830989 157.9030084 -28.20983122 157.89609096 -25.52124023 157.89257812 C-21.50813459 157.8861158 -17.4954073 157.85195948 -13.48242188 157.8203125 C3.90859298 157.74884432 20.88910426 158.81477368 38.125 161.1328125 C38.89349274 161.23523254 39.66198547 161.33765259 40.45376587 161.44317627 C44.34233897 161.97560596 48.20328042 162.60699405 52.0625 163.3203125 C53.19179932 163.5268042 54.32109863 163.7332959 55.48461914 163.94604492 C85.70640827 169.73160254 115.40980533 179.56153535 142.07324219 195.09301758 C146.98903223 197.58425387 151.55252862 197.52059766 156.8125 196.0078125 C163.62128137 193.42961646 166.96667921 188.44945407 170.125 182.1328125 C170.94907872 175.62123965 169.98598425 170.4660374 166.125 165.1328125 C140.21801921 141.96817859 98.19084593 132.74598169 65.125 126.1328125 C63.77390137 125.86259277 63.77390137 125.86259277 62.39550781 125.58691406 C39.59049553 121.12909441 16.3575548 118.61825679 -6.875 118.1328125 C-8.42743408 118.09994141 -8.42743408 118.09994141 -10.01123047 118.06640625 C-76.2173443 115.20197292 -76.2173443 115.20197292 -134.875 138.1328125 Z M-119.51953125 209.6328125 C-123.37267179 214.58132744 -124.38903646 217.86156763 -123.875 224.1328125 C-122.4702629 228.66859014 -120.60859327 232.05596274 -116.5 234.5703125 C-108.69848408 237.93303488 -103.49334511 236.56266086 -95.5625 234.3828125 C-72.63191124 228.38215553 -50.00535726 225.72130178 -26.3125 225.8203125 C-24.94244308 225.82304672 -24.94244308 225.82304672 -23.54470825 225.82583618 C-8.47210691 225.87622865 6.23614703 226.60990387 21.125 229.1328125 C22.15254395 229.30441895 23.18008789 229.47602539 24.23876953 229.65283203 C55.43404471 235.02735288 88.82586061 244.34821463 115.42602539 262.13256836 C119.02726546 264.25274088 122.33907203 264.45668545 126.38671875 263.72265625 C132.09385745 262.1472973 134.81129369 259.99981864 138.125 255.1328125 C139.97081616 251.44118017 139.47002398 247.17087092 139.125 243.1328125 C134.14234955 230.67618638 113.75087437 223.59648863 102.375 218.6328125 C79.95060209 209.16936305 57.05669749 202.48575225 33.125 198.1328125 C32.23731934 197.96700684 31.34963867 197.80120117 30.43505859 197.63037109 C-6.38858752 190.89636706 -89.30937107 182.07770203 -119.51953125 209.6328125 Z M-85.875 270.1328125 C-87.36870117 270.38466309 -87.36870117 270.38466309 -88.89257812 270.64160156 C-91.66193029 271.11743847 -94.42515135 271.61801233 -97.1875 272.1328125 C-97.98744385 272.27444824 -98.7873877 272.41608398 -99.61157227 272.56201172 C-105.44040658 273.71602359 -109.90179767 275.69919629 -113.75 280.4453125 C-115.22617243 283.97172442 -115.34118895 286.3367025 -114.875 290.1328125 C-112.96174902 294.11237454 -111.42449286 295.80523022 -107.625 298.0703125 C-99.65996686 300.32707189 -90.36993495 297.16788088 -82.375 295.6953125 C-72.22919419 293.85978508 -62.14281983 292.12946318 -51.875 291.1328125 C-50.79476562 291.02195312 -49.71453125 290.91109375 -48.6015625 290.796875 C-0.832953 286.75239319 45.33745119 294.19864328 87.52392578 317.18383789 C88.90233643 317.93008423 88.90233643 317.93008423 90.30859375 318.69140625 C91.11868896 319.13798584 91.92878418 319.58456543 92.76342773 320.04467773 C96.76749827 321.88962164 100.00443026 322.59218479 104.1875 321.0703125 C108.35188789 319.32268658 110.22969905 317.31826877 112.125 313.1328125 C112.76049712 309.40748454 112.58803522 306.20017679 111.0625 302.68359375 C108.43834529 299.22880942 105.43055038 297.49532394 101.6875 295.3828125 C100.93670166 294.95307129 100.18590332 294.52333008 99.41235352 294.08056641 C64.47554635 274.49352813 24.96824156 265.42328186 -14.875 264.1328125 C-15.98359375 264.0915625 -17.0921875 264.0503125 -18.234375 264.0078125 C-40.89683309 263.59007134 -63.58105252 266.30958991 -85.875 270.1328125 Z " fill="#1D1818" transform="translate(229.875,6.8671875)"/>
<path d="M0 0 C1.67195977 1.67195977 1.12785168 3.70890629 1.13894653 5.94090271 C1.13591019 6.97369102 1.13591019 6.97369102 1.1328125 8.02734375 C1.13376923 8.73145889 1.13472595 9.43557404 1.13571167 10.161026 C1.13639341 11.65316863 1.13453952 13.14531421 1.13037109 14.63745117 C1.12503063 16.92438418 1.1303121 19.21112008 1.13671875 21.49804688 C1.13605781 22.94531293 1.13477632 24.39257887 1.1328125 25.83984375 C1.13483673 26.52634506 1.13686096 27.21284637 1.13894653 27.92015076 C1.11495764 32.77008473 1.11495764 32.77008473 0 35 C-1.39613065 34.85704109 -2.79189308 34.71048442 -4.1875 34.5625 C-4.96480469 34.48128906 -5.74210937 34.40007812 -6.54296875 34.31640625 C-9 34 -9 34 -11.3671875 33.48046875 C-14.58537762 32.89317293 -17.66677251 32.79261534 -20.9375 32.75 C-22.12214844 32.72421875 -23.30679687 32.6984375 -24.52734375 32.671875 C-28.36842065 33.0348114 -30.72678092 33.99197834 -34 36 C-38.0136161 41.59039385 -37.80126394 46.80758361 -39 54 C-19.53 54 -0.06 54 20 54 C23.41191917 60.82383834 26.44252559 67.37236485 29.08203125 74.47265625 C29.45379486 75.45847183 29.82555847 76.44428741 30.20858765 77.4599762 C31.00331434 79.5685212 31.79573919 81.67793502 32.58602905 83.78814697 C34.67371094 89.36170542 36.77880208 94.92868315 38.8828125 100.49609375 C39.30807724 101.62249268 39.73334198 102.7488916 40.17149353 103.90942383 C44.43229277 115.17843507 48.79475287 126.40687393 53.1875 137.625 C53.53696686 138.51792755 53.88643372 139.4108551 54.24649048 140.33084106 C56.16115338 145.22180997 58.07893219 150.11154341 60 155 C60.2902002 154.14921875 60.58040039 153.2984375 60.87939453 152.421875 C70.84117803 123.23893308 80.92144471 94.09576395 91.3125 65.0625 C91.86296997 63.51731689 91.86296997 63.51731689 92.42456055 61.94091797 C92.75496338 61.0232666 93.08536621 60.10561523 93.42578125 59.16015625 C93.70848877 58.37261963 93.99119629 57.58508301 94.2824707 56.77368164 C95 55 95 55 96 54 C98.86094217 53.88650839 101.69683456 53.83581508 104.55859375 53.83203125 C105.41808121 53.82870285 106.27756866 53.82537445 107.1631012 53.82194519 C108.98478661 53.8168723 110.80648136 53.81453698 112.62817383 53.81469727 C115.4221929 53.81251197 118.21581657 53.79436356 121.00976562 53.77539062 C122.77604031 53.7724566 124.54231688 53.77047186 126.30859375 53.76953125 C127.14821152 53.76234573 127.98782928 53.75516022 128.85289001 53.74775696 C134.77117819 53.77117819 134.77117819 53.77117819 137 56 C136.6073016 59.37800813 135.57393617 62.40360747 134.35205078 65.56347656 C134.01227707 66.44797989 133.67250336 67.33248322 133.32243347 68.24378967 C132.95048355 69.19974533 132.57853363 70.15570099 132.1953125 71.140625 C131.80471146 72.15390366 131.41411041 73.16718231 131.01167297 74.21116638 C129.72000054 77.55895945 128.42254655 80.90447973 127.125 84.25 C126.21590301 86.60249518 125.30713489 88.95511748 124.39868164 91.30786133 C122.05653802 97.37030227 119.70936313 103.4307805 117.36029053 109.49053955 C116.07227082 112.81354601 114.78518712 116.13691297 113.49853516 119.46044922 C109.98276982 128.5414111 106.46391377 137.62115462 102.93760681 146.69802856 C99.65032938 155.15985653 96.37100652 163.62461622 93.1091156 172.0962677 C91.38573652 176.57155447 89.65927165 181.04564815 87.93264771 185.51968384 C87.11510337 187.64065847 86.29903568 189.76220299 85.48458862 191.8843689 C66.58308374 241.12839979 66.58308374 241.12839979 45.76171875 250.94140625 C32.02575371 256.2065357 12.38069224 254.55424961 -1 249 C-2.49660156 248.40445313 -2.49660156 248.40445313 -4.0234375 247.796875 C-9.0373062 245.57785188 -9.0373062 245.57785188 -11 244 C-13.28014999 237.39136771 -9.09899801 231.6613337 -6.3125 225.75 C-5.7627528 224.52905924 -5.21391487 223.30770864 -4.66601562 222.0859375 C-4.13298828 220.93867188 -3.59996094 219.79140625 -3.05078125 218.609375 C-2.56262939 217.55717773 -2.07447754 216.50498047 -1.5715332 215.42089844 C0 213 0 213 2.04052734 212.10302734 C4.73248247 211.96148672 6.48672435 212.77989224 8.9375 213.875 C15.05018497 216.5770524 21.4156651 218.37093444 28.05078125 216.38671875 C32.42640476 214.5161603 36.20154897 212.00503622 38.43530273 207.71240234 C39.21964703 203.94497253 38.003608 201.2736191 36.58203125 197.8359375 C36.30594528 197.13671173 36.02985931 196.43748596 35.7454071 195.71707153 C34.84962861 193.46961768 33.92900282 191.23390972 33 189 C32.70440186 188.28610107 32.40880371 187.57220215 32.10424805 186.83666992 C30.22435961 182.31805313 28.30208093 177.81829123 26.36633301 173.32336426 C17.37011878 152.42251069 8.67751105 131.39806158 0.02915955 110.35140991 C-2.62639269 103.8919674 -5.31373613 97.44703328 -8 91 C-22.85 90.505 -22.85 90.505 -38 90 C-37.99476318 93.53904053 -37.98952637 97.07808105 -37.98413086 100.72436523 C-37.96759793 112.38720847 -37.95647914 124.05005335 -37.94818783 135.71290493 C-37.943025 142.78753187 -37.93598256 149.86214774 -37.92456055 156.93676758 C-37.91355319 163.75778878 -37.90772382 170.57879844 -37.90512276 177.39982796 C-37.90326795 180.00866948 -37.8996463 182.61751033 -37.89426994 185.22634697 C-37.88706357 188.86632552 -37.88600889 192.50625575 -37.88647461 196.14624023 C-37.88287933 197.23668137 -37.87928406 198.3271225 -37.87557983 199.4506073 C-37.8769545 200.43643799 -37.87832916 201.42226868 -37.87974548 202.43797302 C-37.87882369 203.29984946 -37.8779019 204.1617259 -37.87695217 205.04971981 C-38 207 -38 207 -39 208 C-41.79993597 208.10103255 -44.57468644 208.13970088 -47.375 208.1328125 C-48.21466309 208.13376923 -49.05432617 208.13472595 -49.91943359 208.13571167 C-51.69824295 208.13639348 -53.47705477 208.13453917 -55.25585938 208.13037109 C-57.98833776 208.12502283 -60.72065176 208.13031605 -63.453125 208.13671875 C-65.1770837 208.13605797 -66.90104229 208.13477681 -68.625 208.1328125 C-69.44790527 208.13483673 -70.27081055 208.13686096 -71.11865234 208.13894653 C-76.88504946 208.11495054 -76.88504946 208.11495054 -78 207 C-78.09578593 205.4818148 -78.12188147 203.95917604 -78.12025452 202.43797302 C-78.12162918 201.45214233 -78.12300385 200.46631165 -78.12442017 199.4506073 C-78.12082489 198.36016617 -78.11722961 197.26972504 -78.11352539 196.14624023 C-78.11367142 195.00492645 -78.11381744 193.86361267 -78.1139679 192.68771362 C-78.11326818 188.89465469 -78.10547307 185.10164416 -78.09765625 181.30859375 C-78.09579228 178.68685432 -78.09436828 176.06511454 -78.09336853 173.44337463 C-78.09025551 167.23498045 -78.08204252 161.02660379 -78.07201904 154.81821734 C-78.06085699 147.75182559 -78.05534722 140.68543301 -78.05032361 133.61903465 C-78.03985988 119.07934715 -78.02206051 104.53967441 -78 90 C-83.94 90 -89.88 90 -96 90 C-97.49450198 87.01099603 -97.18336418 83.93542181 -97.203125 80.65625 C-97.20882507 79.93135376 -97.21452515 79.20645752 -97.22039795 78.45959473 C-97.22984603 76.92636576 -97.23638117 75.39311651 -97.24023438 73.85986328 C-97.24996241 71.50908323 -97.2809949 69.15916935 -97.3125 66.80859375 C-97.31902788 65.3203177 -97.32427919 63.83203539 -97.328125 62.34375 C-97.3404718 61.63851196 -97.3528186 60.93327393 -97.36553955 60.20666504 C-97.35644531 58.22460938 -97.35644531 58.22460938 -97 55 C-93.20836973 52.47224649 -90.19125969 52.77556965 -85.8125 52.875 C-85.06291016 52.88402344 -84.31332031 52.89304688 -83.54101562 52.90234375 C-81.69387346 52.92587422 -79.84689588 52.96174439 -78 53 C-78.04640625 51.87464844 -78.0928125 50.74929687 -78.140625 49.58984375 C-78.56957483 34.70381672 -76.9426329 20.88544623 -67 9 C-60.84923393 2.7862568 -54.36553827 -0.6346641 -46 -3 C-45.11284302 -3.26151855 -45.11284302 -3.26151855 -44.20776367 -3.52832031 C-30.44139662 -6.46944838 -13.0925608 -5.24123415 0 0 Z " fill="#211D1D" transform="translate(1289,121)"/>
<path d="M0 0 C0.92683594 0.37253906 1.85367188 0.74507812 2.80859375 1.12890625 C20.20339339 8.91721748 32.25855205 24.941536 39.3125 42.1875 C47.24929966 66.17427231 46.21651187 94.30367786 35 117 C25.3964172 134.62911209 10.97850797 146.52165441 -8.0078125 153.03125 C-26.08389819 158.024133 -43.7757404 155.3095352 -60.3828125 147.3046875 C-65.35811832 144.13467623 -69.61502821 139.94647461 -74 136 C-74.33 155.8 -74.66 175.6 -75 196 C-78.15334294 197.57667147 -81.53762241 197.16297041 -85 197.16796875 C-86.18722656 197.17296135 -86.18722656 197.17296135 -87.3984375 197.17805481 C-89.07291075 197.1831204 -90.7473941 197.18546325 -92.421875 197.18530273 C-94.98975135 197.18749127 -97.55719959 197.20565609 -100.125 197.22460938 C-101.74999853 197.22754291 -103.3749991 197.22952797 -105 197.23046875 C-105.77085937 197.23765427 -106.54171875 197.24483978 -107.3359375 197.25224304 C-112.7711728 197.2288272 -112.7711728 197.2288272 -115 195 C-115.19317333 192.40408427 -115.26049807 189.91529982 -115.24050903 187.318573 C-115.24221788 186.51648789 -115.24392673 185.71440277 -115.24568737 184.88801205 C-115.24899611 182.18550596 -115.23795592 179.48324514 -115.22705078 176.78076172 C-115.22648697 174.84945685 -115.22680265 172.91815155 -115.22793579 170.98684692 C-115.22851146 165.73089737 -115.21672253 160.47503844 -115.20278788 155.21911001 C-115.19031617 149.73113046 -115.18911284 144.24314901 -115.18673706 138.75515747 C-115.1805118 128.35707596 -115.16408686 117.95903633 -115.14403808 107.56097329 C-115.12171158 95.72560775 -115.11069384 83.89024026 -115.10064721 72.05485892 C-115.07972152 47.70321603 -115.04452526 23.35161036 -115 -1 C-111.13383969 -3.13056994 -107.83730213 -3.29103085 -103.49609375 -3.265625 C-102.77639908 -3.26753845 -102.05670441 -3.2694519 -101.31520081 -3.27142334 C-99.79810231 -3.27278097 -98.28099202 -3.26911404 -96.76391602 -3.26074219 C-94.44195519 -3.25002057 -92.12076524 -3.26065935 -89.79882812 -3.2734375 C-88.32291496 -3.27211614 -86.84700228 -3.26955422 -85.37109375 -3.265625 C-84.67729111 -3.26967346 -83.98348846 -3.27372192 -83.2686615 -3.27789307 C-79.61983229 -3.2423692 -78.12398052 -3.08265368 -75 -1 C-74.61605333 1.77262255 -74.39657752 4.34323528 -74.3125 7.125 C-74.27833984 7.87910156 -74.24417969 8.63320312 -74.20898438 9.41015625 C-74.12645722 11.27291201 -74.06155289 13.13643326 -74 15 C-73.55011719 14.50371094 -73.10023438 14.00742188 -72.63671875 13.49609375 C-53.64267017 -6.56375315 -25.06145083 -10.58150146 0 0 Z M-64.375 43.25 C-72.43652859 53.15793186 -76.63374981 65.20735105 -75.9375 78.0625 C-74.33151723 90.64269835 -70.32443351 101.65215762 -60.5390625 110.1328125 C-52.82174489 115.80800914 -45.70849225 118.5668679 -36.125 118.4375 C-35.33561035 118.42992676 -34.5462207 118.42235352 -33.73291016 118.41455078 C-23.91260968 118.13778033 -16.19484228 114.71415239 -9 108 C0.48539163 97.61437444 3.4979006 85.33000346 3.24609375 71.5546875 C2.42863147 59.746899 -1.60500066 48.74279249 -10.375 40.5625 C-26.63145358 27.26917926 -49.58679123 27.51490028 -64.375 43.25 Z " fill="#201B1B" transform="translate(808,177)"/>
<path d="M0 0 C2.25631678 1.79930077 4.4473732 3.6204597 6.5703125 5.57421875 C6.10832783 10.76652475 3.39028868 14.15526145 0.4453125 18.26171875 C-0.55862567 19.68357121 -1.56253193 21.1054462 -2.56640625 22.52734375 C-3.30189697 23.56084961 -3.30189697 23.56084961 -4.05224609 24.61523438 C-5.25533659 26.32625851 -6.41835245 28.06531998 -7.57421875 29.80859375 C-8.46173828 31.14664063 -8.46173828 31.14664063 -9.3671875 32.51171875 C-9.87121094 33.28386719 -10.37523437 34.05601562 -10.89453125 34.8515625 C-12.4296875 36.57421875 -12.4296875 36.57421875 -14.21484375 37.58203125 C-17.75628558 37.56953939 -20.13641957 35.47864173 -22.9296875 33.51171875 C-24.1899735 32.66907235 -25.45303924 31.83056964 -26.71875 30.99609375 C-27.3468457 30.58166016 -27.97494141 30.16722656 -28.62207031 29.74023438 C-43.5876471 20.08658841 -61.71326648 15.84313394 -79.35546875 19.1171875 C-85.42563983 20.96374374 -91.04392877 24.05008609 -94.4296875 29.57421875 C-96.22737068 34.96726829 -96.09823383 40.48992724 -94.3671875 45.88671875 C-86.50017935 56.79902037 -70.30961316 59.31673954 -57.94515991 62.39700317 C-34.18673458 68.35248971 -8.39275917 75.15863652 6.03125 96.76171875 C14.21005189 111.70775267 14.24456023 129.87054442 9.60546875 145.91015625 C4.16509777 161.33369956 -5.83245577 171.7596915 -20.1796875 179.38671875 C-45.43296464 191.34733682 -75.85030659 190.09262878 -101.86083984 181.11206055 C-118.13151764 175.1588055 -132.77126317 166.4677836 -145.4296875 154.57421875 C-144.998107 149.70095559 -142.58031772 146.95132631 -139.4296875 143.44921875 C-138.42581843 142.30710013 -137.42323494 141.1638504 -136.421875 140.01953125 C-135.91881836 139.44750977 -135.41576172 138.87548828 -134.89746094 138.28613281 C-133.50593494 136.66314873 -132.18103937 135.008579 -130.875 133.31640625 C-129.72644531 131.83527344 -129.72644531 131.83527344 -128.5546875 130.32421875 C-127.87664063 129.4321875 -127.19859375 128.54015625 -126.5 127.62109375 C-124.05933199 125.20805595 -122.85939905 124.5582913 -119.4296875 124.57421875 C-117.2109375 125.9453125 -117.2109375 125.9453125 -114.9296875 128.01171875 C-96.7641498 143.42816914 -76.42509749 150.02290561 -52.82324219 148.79003906 C-44.99685251 148.0843548 -37.68993044 145.50885181 -32.4296875 139.57421875 C-29.44947479 134.16187842 -28.31326206 128.63610705 -29.98046875 122.5703125 C-32.57514982 116.08975836 -37.26685023 113.38874286 -43.4296875 110.57421875 C-52.57806596 106.85842493 -62.1256143 104.60959537 -71.6796875 102.19921875 C-93.85590252 96.57412946 -118.37351278 89.68987247 -131.18359375 68.96875 C-138.6332111 54.65334112 -139.71069285 37.19390767 -135.53515625 21.66796875 C-129.61778455 5.10769176 -118.92046115 -5.90693386 -103.3046875 -13.67578125 C-70.24960222 -27.84224637 -28.74772563 -21.17383905 0 0 Z " fill="#242020" transform="translate(669.4296875,144.42578125)"/>
<path d="M0 0 C1.02480469 0.350625 2.04960938 0.70125 3.10546875 1.0625 C22.55833385 8.31013926 37.81549482 23.71496522 46.5625 42.32421875 C47.85729005 45.51880491 48.96971655 48.7111736 50 52 C50.31839844 52.96679688 50.63679687 53.93359375 50.96484375 54.9296875 C56.5550136 74.76577405 53.31561341 96.83585129 44 115 C32.63565022 134.02602921 14.79442657 148.36010577 -6.6328125 154.25390625 C-30.27299187 159.49204344 -53.17498226 156.6169711 -74 144 C-83.31450335 138.05951209 -90.46275938 130.88302642 -97 122 C-97.57363281 121.22398437 -98.14726563 120.44796875 -98.73828125 119.6484375 C-110.17737112 102.44546514 -112.57287791 79.35060846 -109.38671875 59.359375 C-106.55230399 45.48937025 -99.53867019 32.37285048 -90 22 C-89.30132813 21.22140625 -88.60265625 20.4428125 -87.8828125 19.640625 C-82.53811252 13.97258018 -76.76028473 9.83691836 -70 6 C-68.77990234 5.30583984 -68.77990234 5.30583984 -67.53515625 4.59765625 C-47.56085514 -6.05314613 -21.2094899 -8.02949555 0 0 Z M-57.9375 43.375 C-67.41200042 53.86380217 -70.40957168 65.32683089 -70.27734375 79.26953125 C-69.42561359 90.72590167 -64.68346771 101.90612403 -56.25 109.8125 C-46.99373232 117.28803809 -35.90571032 121.19817851 -24 120 C-11.12759348 117.92436805 -1.77195231 112.51287284 6 102 C12.54274733 92.09584119 14.35630741 79.58994693 12.53125 68.03125 C10.13004165 56.9399543 5.11046226 47.0092277 -4 40 C-20.85577272 29.28011055 -42.84137977 29.0957694 -57.9375 43.375 Z " fill="#211D1D" transform="translate(971,176)"/>
<path d="M0 0 C0.79148437 -0.0033284 1.58296875 -0.0066568 2.3984375 -0.01008606 C4.07291075 -0.01515165 5.7473941 -0.0174945 7.421875 -0.01733398 C9.98975135 -0.01952252 12.55719959 -0.03768734 15.125 -0.05664062 C16.74999853 -0.05957416 18.3749991 -0.06155922 20 -0.0625 C21.15628906 -0.07327827 21.15628906 -0.07327827 22.3359375 -0.08427429 C27.7711728 -0.06085845 27.7711728 -0.06085845 30 2.16796875 C30.24581843 5.03233699 30.37369381 7.80700015 30.4140625 10.67578125 C30.43342865 11.51640106 30.4527948 12.35702087 30.4727478 13.22311401 C30.53261658 15.91296178 30.57895771 18.60285218 30.625 21.29296875 C30.6631731 23.11460219 30.70222444 24.93621745 30.7421875 26.7578125 C30.83832398 31.22771727 30.92232769 35.69770654 31 40.16796875 C32.03930664 40.1522583 33.07861328 40.13654785 34.14941406 40.12036133 C38.0108259 40.06600033 41.872204 40.03159642 45.73388672 40.00317383 C47.40419201 39.98810121 49.07445781 39.96763955 50.74462891 39.94165039 C53.14756013 39.90519902 55.54996744 39.88822744 57.953125 39.875 C58.69806213 39.85951614 59.44299927 39.84403229 60.21051025 39.82807922 C63.24572283 39.82709731 65.67308282 40.02699499 68.47412109 41.23486328 C70.8161238 44.20189967 70.48431247 46.65819247 70.4609375 50.390625 C70.46002106 51.09191025 70.45910461 51.7931955 70.4581604 52.51573181 C70.45212555 53.99598981 70.43638261 55.47623565 70.41162109 56.95629883 C70.37507391 59.2258789 70.37060196 61.49382808 70.37109375 63.76367188 C70.29516214 74.87280661 70.29516214 74.87280661 68 77.16796875 C65.13111419 77.34329164 62.36007355 77.39934489 59.4921875 77.36328125 C58.65156769 77.36045135 57.81094788 77.35762146 56.94485474 77.35470581 C54.25475954 77.34349305 51.5649949 77.31838678 48.875 77.29296875 C47.05339022 77.28294035 45.23177523 77.27381426 43.41015625 77.265625 C38.93997642 77.24355017 34.47004429 77.20901309 30 77.16796875 C30.08453152 86.56523158 30.17946427 95.96231591 30.28752708 105.35933781 C30.33738612 109.72316903 30.38371678 114.08697727 30.421875 118.45092773 C30.45885948 122.665588 30.50525451 126.88005091 30.55806351 131.09454155 C30.57653772 132.69917767 30.59167119 134.30385598 30.60334396 135.90855598 C30.6203265 138.16328082 30.6493888 140.41756053 30.68115234 142.67211914 C30.69447601 143.95341202 30.70779968 145.2347049 30.7215271 146.55482483 C31.01531684 150.3667024 31.67869854 153.58104527 33 157.16796875 C39.70952592 160.67280047 49.08489363 160.30491945 56.21484375 158.234375 C58.06060089 157.51836988 59.89084394 156.75979147 61.6953125 155.9453125 C64.29935863 155.06699863 65.46930137 155.18380817 68 156.16796875 C69 157.16796875 69 157.16796875 69.11352539 160.21899414 C69.11336634 161.56788146 69.10767612 162.91677489 69.09765625 164.265625 C69.0962413 164.97448349 69.09482635 165.68334198 69.09336853 166.41368103 C69.08775443 168.68598587 69.07519963 170.9581935 69.0625 173.23046875 C69.05748681 174.76757671 69.05292359 176.3046862 69.04882812 177.84179688 C69.03778042 181.61722517 69.02050641 185.39258046 69 189.16796875 C67.08923202 190.14453329 65.17599071 191.11625949 63.26171875 192.0859375 C62.19655029 192.62758545 61.13138184 193.1692334 60.03393555 193.72729492 C45.92323029 200.42780765 27.37048945 199.58119318 12.875 194.60546875 C3.42861706 190.45938749 -2.46859764 183.51276439 -6.84375 174.35546875 C-9.36919492 167.3934314 -10.29661585 160.71988734 -10.22705078 153.34350586 C-10.22734283 152.51313812 -10.22763489 151.68277039 -10.22793579 150.82723999 C-10.22655626 148.11648652 -10.21106083 145.40601721 -10.1953125 142.6953125 C-10.19157746 140.80245616 -10.18873281 138.90959787 -10.18673706 137.01673889 C-10.17913926 132.06017622 -10.15952425 127.10373272 -10.1373291 122.1472168 C-10.11678726 117.07928072 -10.10771758 112.01132518 -10.09765625 106.94335938 C-10.0762744 97.01817711 -10.04218548 87.09308288 -10 77.16796875 C-11.20398437 77.19117188 -12.40796875 77.214375 -13.6484375 77.23828125 C-15.22395215 77.25703738 -16.79947348 77.27523774 -18.375 77.29296875 C-19.56609375 77.31810547 -19.56609375 77.31810547 -20.78125 77.34375 C-22.85492015 77.36132348 -24.92883241 77.27132043 -27 77.16796875 C-29 75.16796875 -29 75.16796875 -29.22705078 71.91162109 C-29.22673382 70.5256758 -29.21541759 69.13970574 -29.1953125 67.75390625 C-29.1924826 67.02426666 -29.18965271 66.29462708 -29.18673706 65.5428772 C-29.17553002 63.20940847 -29.1504251 60.87632172 -29.125 58.54296875 C-29.11497085 56.96224512 -29.10584489 55.38151548 -29.09765625 53.80078125 C-29.07558905 49.92302961 -29.04105615 46.04556397 -29 42.16796875 C-25 40.16796875 -25 40.16796875 -11 40.16796875 C-10.67 27.29796875 -10.34 14.42796875 -10 1.16796875 C-6.84665706 -0.40870272 -3.46237759 0.00499834 0 0 Z " fill="#242020" transform="translate(1054,133.83203125)"/>
<path d="M0 0 C0.74330566 -0.00191345 1.48661133 -0.0038269 2.25244141 -0.00579834 C3.82259459 -0.00715817 5.3927591 -0.00347579 6.96289062 0.00488281 C9.36614233 0.01558555 11.76864654 0.0049811 14.171875 -0.0078125 C15.69791832 -0.00649087 17.22396117 -0.0039284 18.75 0 C19.46881348 -0.00404846 20.18762695 -0.00809692 20.92822266 -0.01226807 C24.62850434 0.02250818 26.21266401 0.15740101 29.375 2.265625 C29.7469368 4.86435699 29.7469368 4.86435699 29.74249268 8.22521973 C29.74806183 9.495616 29.75363098 10.76601227 29.7593689 12.0749054 C29.75034555 13.49069398 29.74102774 14.90648071 29.73144531 16.32226562 C29.7322358 17.80698263 29.73433189 19.29169943 29.73764038 20.77641296 C29.74278575 24.81565437 29.72921652 28.85464212 29.71211338 32.8938427 C29.69710753 37.11432158 29.69825212 41.33479676 29.69744873 45.55529785 C29.69375306 52.64384304 29.67877082 59.73229157 29.65625 66.82080078 C29.62737644 75.92758652 29.61702732 85.03429437 29.6125679 94.14112091 C29.6085911 101.95921727 29.5960882 109.7772966 29.58222103 117.59538078 C29.57811775 120.11382382 29.57519429 122.63226624 29.57242584 125.15071106 C29.5675396 129.1036238 29.55734763 133.0564891 29.54298782 137.00937843 C29.53845746 138.46306238 29.53562442 139.91675271 29.53458023 141.37044334 C29.5328398 143.34898184 29.52433489 145.327511 29.51544189 147.30603027 C29.51246723 148.41511497 29.50949257 149.52419968 29.50642776 150.66689301 C29.375 153.265625 29.375 153.265625 28.375 155.265625 C22.98153012 155.29027349 17.58809275 155.30846031 12.19458008 155.32055664 C10.35831125 155.32559731 8.52204646 155.33242977 6.68579102 155.34106445 C4.05223599 155.35314172 1.41873384 155.35885581 -1.21484375 155.36328125 C-2.45390724 155.37102318 -2.45390724 155.37102318 -3.71800232 155.37892151 C-5.68736368 155.37911705 -7.65661614 155.32766652 -9.625 155.265625 C-11.41526613 153.47535887 -10.75900512 150.80618341 -10.76544189 148.38832092 C-10.77115204 147.11088516 -10.77686218 145.8334494 -10.78274536 144.51730347 C-10.78399084 143.08844004 -10.78511591 141.6595765 -10.78613281 140.23071289 C-10.79075854 138.73629127 -10.79578287 137.24187083 -10.80117798 135.74745178 C-10.8143266 131.67725904 -10.82075158 127.60708282 -10.82518864 123.53687215 C-10.82811507 120.99689907 -10.83221902 118.45693055 -10.83669281 115.91695976 C-10.8503735 107.97839918 -10.86003766 100.03984897 -10.8638947 92.10127741 C-10.86837867 82.92151034 -10.88593982 73.74189194 -10.9148953 64.56217009 C-10.93647275 57.47682387 -10.94659685 50.39151959 -10.94793582 43.30614084 C-10.94898658 39.06946924 -10.95495159 34.83293728 -10.97275543 30.59630013 C-10.98916859 26.61298089 -10.99142483 22.62990727 -10.98261642 18.64656639 C-10.98184243 17.18158437 -10.98623611 15.71658951 -10.99607468 14.25164032 C-11.00868403 12.25777063 -11.00116616 10.26380341 -10.99249268 8.26991272 C-10.99395924 7.15215486 -10.9954258 6.03439699 -10.9969368 4.88276768 C-10.81282808 3.58728205 -10.81282808 3.58728205 -10.625 2.265625 C-6.96846256 -0.17206663 -4.22710148 -0.02380765 0 0 Z " fill="#231F1F" transform="translate(1148.625,173.734375)"/>
<path d="M0 0 C5.79004525 5.10156034 9.30378451 10.70876229 10.3125 18.375 C10.6890469 25.90593795 8.9522986 32.45844425 4.08203125 38.30078125 C-1.57783263 43.78033089 -7.41465328 46.79588434 -15.3515625 47.0859375 C-23.36435391 46.56276555 -28.94452636 43.43707449 -34.375 37.625 C-39.54808555 31.36658082 -40.54037406 26.13349197 -40.37109375 18.09765625 C-39.40979939 10.07337804 -35.1982631 4.26103769 -28.95703125 -0.66015625 C-20.60076785 -6.38111104 -8.25259987 -5.63901258 0 0 Z " fill="#282424" transform="translate(1173,112)"/>
<path d="M0 0 C5.75938122 4.50734182 9.48744848 9.85161982 10.52734375 17.15625 C10.83494742 24.87128264 10.0294167 30.74470909 5.046875 36.78125 C0.33709451 41.71892309 -3.98938467 45.28773056 -10.93359375 46.15234375 C-18.68364803 46.3128199 -24.64675211 45.52528458 -30.953125 40.78125 C-36.37758475 35.1876283 -39.22813652 29.44098771 -39.390625 21.59375 C-39.25482608 14.0908596 -37.25329556 8.64646218 -32.37890625 2.9375 C-23.36867414 -5.6316718 -10.464327 -6.52974005 0 0 Z M-31.765625 10.06640625 C-35.2038261 15.03144007 -35.73395504 19.87066313 -34.953125 25.78125 C-33.07440299 31.96865782 -29.27567828 36.21229896 -23.953125 39.78125 C-18.2068357 41.69667977 -11.24287802 41.94756943 -5.49609375 39.91015625 C-0.39674582 36.93634914 3.91131773 32.50616716 5.66015625 26.76953125 C6.8414676 20.69592039 6.19469014 15.09709675 3.046875 9.78125 C-1.94076124 4.27541779 -6.76371619 0.82871244 -14.265625 0.40625 C-21.93489224 0.62282399 -27.13583631 4.11561807 -31.765625 10.06640625 Z " fill="#858282" transform="translate(1467.953125,178.21875)"/>
<path d="M0 0 C0.33 0 0.66 0 1 0 C1.33 64.68 1.66 129.36 2 196 C13.88 196.33 25.76 196.66 38 197 C38 176.54 38 156.08 38 135 C41.61322401 136.806612 42.83748791 137.66418971 45.25 140.625 C45.77078125 141.25664062 46.2915625 141.88828125 46.828125 142.5390625 C47.21484375 143.02117187 47.6015625 143.50328125 48 144 C44.33759908 142.43039961 43.06096354 141.06096354 40 138 C39.67 157.8 39.34 177.6 39 198 C35.84665706 199.57667147 32.46237759 199.16297041 29 199.16796875 C27.81277344 199.17296135 27.81277344 199.17296135 26.6015625 199.17805481 C24.92708925 199.1831204 23.2526059 199.18546325 21.578125 199.18530273 C19.01024865 199.18749127 16.44280041 199.20565609 13.875 199.22460938 C12.25000147 199.22754291 10.6250009 199.22952797 9 199.23046875 C8.22914063 199.23765427 7.45828125 199.24483978 6.6640625 199.25224304 C1.2288272 199.2288272 1.2288272 199.2288272 -1 197 C-1.19535313 194.4064471 -1.26488784 191.9198539 -1.24723816 189.32530212 C-1.24965257 188.52392258 -1.25206699 187.72254303 -1.25455457 186.89687926 C-1.26021527 184.19671495 -1.25151069 181.49678474 -1.24291992 178.79663086 C-1.24399221 176.86694779 -1.24593009 174.93726504 -1.24867249 173.00758362 C-1.25353219 167.75570467 -1.24585139 162.5039103 -1.23571944 157.25204158 C-1.22695841 151.76719551 -1.228696 146.28235225 -1.2290802 140.79750061 C-1.22814275 131.58625873 -1.21944743 122.37504973 -1.20581055 113.16381836 C-1.19007951 102.49832104 -1.18481255 91.83285974 -1.1855461 81.16735166 C-1.18615544 70.92645384 -1.18105893 60.68556782 -1.17275429 50.44467354 C-1.16921421 46.07744823 -1.16739001 41.71022709 -1.16686058 37.34300041 C-1.16585954 32.20572137 -1.1597826 27.06847283 -1.14969444 21.93120384 C-1.14676186 20.04009437 -1.1455456 18.14898138 -1.14612198 16.25786972 C-1.14660907 13.68778495 -1.14099272 11.11778697 -1.13371277 8.54771423 C-1.13526137 7.78936545 -1.13680997 7.03101666 -1.1384055 6.24968761 C-1.11417859 1.11417859 -1.11417859 1.11417859 0 0 Z " fill="#838080" transform="translate(694,175)"/>
<path d="M0 0 C2.536875 -0.061875 5.07375 -0.12375 7.6875 -0.1875 C8.47729248 -0.21481201 9.26708496 -0.24212402 10.08081055 -0.27026367 C14.60318145 -0.32344113 17.43303549 0.18325747 21 3 C22.16343227 5.32686453 22.19895988 6.84721413 22.25 9.4375 C22.27578125 10.21996094 22.3015625 11.00242188 22.328125 11.80859375 C21.92823089 14.47931509 21.05300878 15.31977439 19 17 C20.07401108 19.91517292 20.77810176 21.77810176 23 24 C22.625 26.125 22.625 26.125 22 28 C15.52355072 26.75452899 15.52355072 26.75452899 12.875 22.9375 C12.25625 21.968125 11.6375 20.99875 11 20 C8.37233611 19.03780298 8.37233611 19.03780298 6 19 C6 21.64 6 24.28 6 27 C4.02 27 2.04 27 0 27 C0 18.09 0 9.18 0 0 Z M6 7 C6 8.65 6 10.3 6 12 C8.64 12 11.28 12 14 12 C14.66 10.68 15.32 9.36 16 8 C14.99163938 6.76732652 14.99163938 6.76732652 12.93359375 6.90234375 C11.69802734 6.91974609 11.69802734 6.91974609 10.4375 6.9375 C9.19806641 6.95103516 9.19806641 6.95103516 7.93359375 6.96484375 C6.97646484 6.98224609 6.97646484 6.98224609 6 7 Z " fill="#545151" transform="translate(1443,185)"/>
<path d="M0 0 C4.39646415 2.90316797 7.61086766 5.75216673 9 11 C8.29875 10.2575 7.5975 9.515 6.875 8.75 C4.02281994 6.02182777 1.3236937 4.08697046 -2 2 C-2.33 2.33 -2.66 2.66 -3 3 C-3.66 3.33 -4.32 3.66 -5 4 C-5.99 3.67 -6.98 3.34 -8 3 C-14.51168238 2.21654315 -19.61820211 3.18103862 -25 7 C-31.21677127 12.75919166 -32.3320586 18.93197099 -33 27 C-33.33 27 -33.66 27 -34 27 C-34.33 24.36 -34.66 21.72 -35 19 C-35.33 22.3 -35.66 25.6 -36 29 C-36.33 29 -36.66 29 -37 29 C-37.6924463 19.18265019 -36.97082506 11.82190925 -30.42578125 4.15625 C-21.88451615 -3.96691122 -10.45031666 -4.93947948 0 0 Z " fill="#716F6F" transform="translate(1466,177)"/>
<path d="M0 0 C0 0.66 0 1.32 0 2 C-2.02086655 1.8755382 -4.04168867 1.75035514 -6.0625 1.625 C-6.7544043 1.58318604 -7.44630859 1.54137207 -8.15917969 1.49829102 C-13.10238422 1.19516998 -18.04140191 0.8528836 -22.98046875 0.48828125 C-59.37679531 -2.13744041 -95.01820784 -0.84767067 -131.10449219 4.57470703 C-134.73060474 5.10731142 -138.36085768 5.56634299 -142 6 C-139.55751008 3.02675274 -137.73774255 2.52356245 -133.96484375 2.0859375 C-132.99095703 1.96476563 -132.01707031 1.84359375 -131.01367188 1.71875 C-129.4909668 1.54859375 -129.4909668 1.54859375 -127.9375 1.375 C-125.92543089 1.13574068 -123.91369099 0.89369124 -121.90234375 0.6484375 C-121.01023193 0.54708496 -120.11812012 0.44573242 -119.19897461 0.34130859 C-116.96346041 0.10870451 -116.96346041 0.10870451 -115 -1 C-110.49606488 -1.53231903 -105.96312237 -1.77688059 -101.4375 -2.0625 C-100.73894897 -2.10669067 -100.04039795 -2.15088135 -99.32067871 -2.19641113 C-67.10765016 -4.1667877 -31.88017648 -5.80716969 0 0 Z " fill="#898787" transform="translate(270,127)"/>
<path d="M0 0 C0 0.99 0 1.98 0 3 C-2.02571913 4.77658237 -4.01533912 6.36051588 -6.1875 7.9375 C-7.34794407 8.80039431 -8.50810421 9.66367061 -9.66796875 10.52734375 C-10.23314209 10.9454834 -10.79831543 11.36362305 -11.38061523 11.79443359 C-14.96155167 14.46029582 -18.22224695 17.04625229 -21.0625 20.5 C-25.16938644 25.31092411 -29.64037638 29.7220902 -34.1328125 34.16796875 C-34.6165332 34.64669434 -35.10025391 35.12541992 -35.59863281 35.61865234 C-36.89136147 36.89291345 -38.19144678 38.15969977 -39.4921875 39.42578125 C-45.08898273 45.17077822 -49.80620898 51.35505664 -54.375 57.9375 C-54.92027344 58.71673828 -55.46554688 59.49597656 -56.02734375 60.29882812 C-57.35486504 62.19695068 -58.67899957 64.09733635 -60 66 C-60.33 65.34 -60.66 64.68 -61 64 C-38.74374592 31.34740048 -38.74374592 31.34740048 -25 20 C-24.34 20 -23.68 20 -23 20 C-23 19.34 -23 18.68 -23 18 C-21.47519627 16.58025165 -19.87621887 15.23985325 -18.25 13.9375 C-17.25871094 13.1434375 -16.26742187 12.349375 -15.24609375 11.53125 C-10.23197388 7.59716511 -5.12724627 3.7850352 0 0 Z " fill="#A3A1A1" transform="translate(116,46)"/>
<path d="M0 0 C0.495 0.99 0.495 0.99 1 2 C-4.97088625 12.11538376 -12.83932039 20.37403912 -24.37109375 23.6796875 C-36.16447014 26.36585435 -47.11319575 25.3827633 -57.83984375 19.421875 C-63.11466122 15.90004198 -67.12143781 12.00130387 -71 7 C-70.67 6.34 -70.34 5.68 -70 5 C-69.61070312 5.50789063 -69.22140625 6.01578125 -68.8203125 6.5390625 C-60.82105836 16.38146276 -51.16699159 20.77792422 -38.66015625 22.28125 C-28.29618748 22.7310425 -18.16394677 19.29951602 -10 13 C-5.98008669 9.13178153 -2.62478238 4.94076683 0 0 Z " fill="#9E9C9C" transform="translate(979,273)"/>
<path d="M0 0 C0.33 0 0.66 0 1 0 C0.86186975 4.14612814 0.71321141 8.29181162 0.5625 12.4375 C0.52318359 13.62150391 0.48386719 14.80550781 0.44335938 16.02539062 C0.40146484 17.15009766 0.35957031 18.27480469 0.31640625 19.43359375 C0.27974854 20.47572021 0.24309082 21.51784668 0.20532227 22.59155273 C0 25 0 25 -1 26 C-3.69235776 26.23678716 -6.36498156 26.42198025 -9.0625 26.5625 C-10.20041992 26.62727539 -10.20041992 26.62727539 -11.36132812 26.69335938 C-13.24065438 26.79973633 -15.12030244 26.90039934 -17 27 C-17.01981934 27.86802246 -17.03963867 28.73604492 -17.06005859 29.63037109 C-17.13809872 32.84726267 -17.22478881 36.06377045 -17.31738281 39.28027344 C-17.35569327 40.67308572 -17.39054259 42.06599765 -17.421875 43.45898438 C-17.46747907 45.45986308 -17.52651623 47.46042146 -17.5859375 49.4609375 C-17.63306885 51.26763916 -17.63306885 51.26763916 -17.68115234 53.11083984 C-18 56 -18 56 -20 58 C-20.07405887 53.33694962 -20.12855763 48.67424016 -20.16479492 44.01074219 C-20.17989814 42.42376749 -20.20038223 40.83683463 -20.22631836 39.25 C-20.26263595 36.97124927 -20.27971023 34.69304942 -20.29296875 32.4140625 C-20.30845261 31.70255035 -20.32393646 30.99103821 -20.33988953 30.25796509 C-20.34057617 28.25634766 -20.34057617 28.25634766 -20 25 C-16.20836973 22.47224649 -13.19125969 22.77556965 -8.8125 22.875 C-8.06291016 22.88402344 -7.31332031 22.89304688 -6.54101562 22.90234375 C-4.69387346 22.92587422 -2.84689588 22.96174439 -1 23 C-1.01160156 21.75863281 -1.02320313 20.51726562 -1.03515625 19.23828125 C-1.04453868 17.59635568 -1.0536384 15.95442847 -1.0625 14.3125 C-1.07087891 13.49587891 -1.07925781 12.67925781 -1.08789062 11.83789062 C-1.10442051 7.75500916 -1.03035098 3.98348293 0 0 Z " fill="#8C8A8A" transform="translate(1212,151)"/>
<path d="M0 0 C1.16171219 -0.00149551 1.16171219 -0.00149551 2.34689331 -0.00302124 C28.03749884 0.00071993 28.03749884 0.00071993 40 2.1875 C40 2.5175 40 2.8475 40 3.1875 C38.92238403 3.14206055 38.92238403 3.14206055 37.82299805 3.09570312 C13.60012654 2.09116583 -9.82322599 2.26268629 -34 4.1875 C-36.45046275 4.37705445 -38.90098166 4.56588469 -41.3515625 4.75390625 C-42.43518066 4.83713135 -43.51879883 4.92035645 -44.63525391 5.00610352 C-45.41562012 5.06596436 -46.19598633 5.1258252 -47 5.1875 C-44.19727231 2.82966229 -42.30668684 1.78846272 -38.66015625 1.45703125 C-37.78037109 1.37622314 -36.90058594 1.29541504 -35.99414062 1.2121582 C-35.02669922 1.142146 -34.05925781 1.07213379 -33.0625 1 C-32.03705078 0.92031982 -31.01160156 0.84063965 -29.95507812 0.75854492 C-19.9751253 0.08290966 -9.998391 0.00340377 0 0 Z " fill="#8D8B8B" transform="translate(201,198.8125)"/>
<path d="M0 0 C1.32040283 -0.00143509 1.32040283 -0.00143509 2.66748047 -0.00289917 C4.53027416 -0.00358026 6.39307023 -0.00173093 8.25585938 0.00244141 C11.11333528 0.00779066 13.970654 0.00249401 16.828125 -0.00390625 C18.63541701 -0.00324546 20.44270893 -0.00196427 22.25 0 C23.10835449 -0.00202423 23.96670898 -0.00404846 24.85107422 -0.00613403 C30.89508255 0.01785378 30.89508255 0.01785378 33.125 1.1328125 C33.125 1.7928125 33.125 2.4528125 33.125 3.1328125 C18.605 3.1328125 4.085 3.1328125 -10.875 3.1328125 C-10.875 2.4728125 -10.875 1.8128125 -10.875 1.1328125 C-7.50828122 -0.55054689 -3.702034 -0.00873039 0 0 Z " fill="#656464" transform="translate(229.875,6.8671875)"/>
<path d="M0 0 C5.15888608 0.55700055 9.54718207 1.84597136 14.375 3.75 C22.9009587 6.96036783 31.58749105 8.71402112 40.53271484 10.35058594 C41.5583252 10.53911133 42.58393555 10.72763672 43.640625 10.921875 C45.01009277 11.16309082 45.01009277 11.16309082 46.40722656 11.40917969 C49.08582931 12.01955809 51.4803006 12.91460851 54 14 C51.03958863 14.90774359 48.96888017 15.02535032 45.9375 14.43359375 C45.15036621 14.28083984 44.36323242 14.12808594 43.55224609 13.97070312 C42.71000488 13.79474609 41.86776367 13.61878906 41 13.4375 C40.1229541 13.25767578 39.2459082 13.07785156 38.34228516 12.89257812 C25.30407998 10.11443927 12.19108326 6.45390567 0 1 C0 0.67 0 0.34 0 0 Z " fill="#918E8E" transform="translate(158,429)"/>
<path d="M0 0 C0 0.33 0 0.66 0 1 C-0.75692139 1.03963867 -1.51384277 1.07927734 -2.29370117 1.12011719 C-20.41095874 2.10568293 -38.15468503 3.87754284 -56.10449219 6.57470703 C-59.73060474 7.10731142 -63.36085768 7.56634299 -67 8 C-64.55751008 5.02675274 -62.73774255 4.52356245 -58.96484375 4.0859375 C-57.99095703 3.96476563 -57.01707031 3.84359375 -56.01367188 3.71875 C-54.4909668 3.54859375 -54.4909668 3.54859375 -52.9375 3.375 C-50.92543089 3.13574068 -48.91369099 2.89369124 -46.90234375 2.6484375 C-46.01023193 2.54708496 -45.11812012 2.44573242 -44.19897461 2.34130859 C-41.96346041 2.10870451 -41.96346041 2.10870451 -40 1 C-26.73924278 -0.47139909 -13.31768975 -0.10842308 0 0 Z " fill="#9A9898" transform="translate(195,125)"/>
<path d="M0 0 C0.85948746 -0.0033284 1.71897491 -0.0066568 2.60450745 -0.01008606 C4.42619286 -0.01515895 6.24788761 -0.01749427 8.06958008 -0.01733398 C10.86359915 -0.01951928 13.65722282 -0.03766769 16.45117188 -0.05664062 C18.21744656 -0.05957465 19.98372313 -0.06155939 21.75 -0.0625 C23.00942665 -0.07327827 23.00942665 -0.07327827 24.29429626 -0.08427429 C30.21258444 -0.06085306 30.21258444 -0.06085306 32.44140625 2.16796875 C32.11140625 3.15796875 31.78140625 4.14796875 31.44140625 5.16796875 C30.94640625 4.17796875 30.94640625 4.17796875 30.44140625 3.16796875 C25.24531167 3.0937497 20.04952642 3.03933429 14.85302734 3.00317383 C13.08572006 2.98809773 11.31845011 2.96763353 9.55126953 2.94165039 C7.0093463 2.90521473 4.46791819 2.88823081 1.92578125 2.875 C1.13709656 2.85951614 0.34841187 2.84403229 -0.46417236 2.82807922 C-3.86425826 2.82703875 -6.13669309 2.91480393 -9.08886719 4.6862793 C-9.57387695 5.17523682 -10.05888672 5.66419434 -10.55859375 6.16796875 C-9.26166453 -1.05777974 -6.80395824 0.00899623 0 0 Z " fill="#747171" transform="translate(1393.55859375,174.83203125)"/>
<path d="M0 0 C3.4797021 0.42435392 6.20622838 1.08999057 9.4375 2.5 C15.26745684 4.95471867 20.97829668 5.12455667 27.24609375 5.09765625 C27.90207047 5.0962413 28.55804718 5.09482635 29.23390198 5.09336853 C31.30181702 5.08783031 33.36961842 5.07529002 35.4375 5.0625 C36.85090988 5.05747699 38.26432148 5.0529155 39.67773438 5.04882812 C43.11852568 5.03788126 46.55925172 5.02066038 50 5 C41.7384431 10.5077046 26.84844547 8.84886722 17.33984375 7.46875 C11.25486447 6.02405815 5.59368559 3.78271733 0 1 C0 0.67 0 0.34 0 0 Z " fill="#878484" transform="translate(749,324)"/>
<path d="M0 0 C1.175625 0.144375 2.35125 0.28875 3.5625 0.4375 C4.22378906 0.51871094 4.88507813 0.59992188 5.56640625 0.68359375 C7.44397693 0.92770808 9.31631901 1.21225745 11.18554688 1.51367188 C14.99622111 1.99951821 18.62529195 2.113588 22.46484375 2.09765625 C23.14301651 2.0962413 23.82118927 2.09482635 24.51991272 2.09336853 C26.65915578 2.08782745 28.79828925 2.07528653 30.9375 2.0625 C32.39908702 2.05747736 33.86067569 2.0529158 35.32226562 2.04882812 C38.88154526 2.03787745 42.44076191 2.02065445 46 2 C40.88978046 7.11021954 30.41583467 5.29506373 23.68188477 5.33007812 C15.17386864 5.25592881 7.95293865 4.18686629 0 1 C0 0.67 0 0.34 0 0 Z " fill="#737070" transform="translate(1288,369)"/>
<path d="M0 0 C-10.88021595 7.2534773 -29.48691329 6.9551698 -42 5 C-42 4.34 -42 3.68 -42 3 C-41.08710205 2.98018066 -40.1742041 2.96036133 -39.23364258 2.93994141 C-35.83217528 2.86163736 -32.43113396 2.77493775 -29.0300293 2.68261719 C-27.56071138 2.64444048 -26.09130361 2.60956818 -24.62182617 2.578125 C-22.50406886 2.53222711 -20.3869241 2.47427628 -18.26953125 2.4140625 C-16.99698486 2.3826416 -15.72443848 2.3512207 -14.41333008 2.31884766 C-9.2073194 1.83254124 -5.36757428 -0.24965462 0 0 Z " fill="#817E7E" transform="translate(971,327)"/>
<path d="M0 0 C4.94057463 0.43593306 7.41085293 2.71631225 11 6 C11.71542969 6.54527344 12.43085937 7.09054688 13.16796875 7.65234375 C15.7922585 11.01523957 15.43695517 14.18012965 15.25 18.25 C15.23195313 18.99507812 15.21390625 19.74015625 15.1953125 20.5078125 C15.14835649 22.33909701 15.07661652 24.16971649 15 26 C14.67 26 14.34 26 14 26 C13.67 22.04 13.34 18.08 13 14 C12.34 14 11.68 14 11 14 C10.401875 13.0925 9.80375 12.185 9.1875 11.25 C7.03856741 8.05730015 4.98269564 6.35475972 2 4 C0.6875 1.75 0.6875 1.75 0 0 Z " fill="#4C4848" transform="translate(1461,178)"/>
<path d="M0 0 C1.20527344 0.00322266 2.41054687 0.00644531 3.65234375 0.00976562 C4.90660156 0.01814453 6.16085937 0.02652344 7.453125 0.03515625 C9.35771484 0.04192383 9.35771484 0.04192383 11.30078125 0.04882812 C14.43494336 0.06061069 17.56901041 0.07706209 20.703125 0.09765625 C20.703125 0.75765625 20.703125 1.41765625 20.703125 2.09765625 C5.358125 2.59265625 5.358125 2.59265625 -10.296875 3.09765625 C-10.296875 2.43765625 -10.296875 1.77765625 -10.296875 1.09765625 C-6.82022405 0.02877101 -3.62550022 -0.01710142 0 0 Z " fill="#878585" transform="translate(1253.296875,116.90234375)"/>
<path d="M0 0 C0 0.33 0 0.66 0 1 C-1.17018677 1.08302368 -1.17018677 1.08302368 -2.36401367 1.16772461 C-5.97187041 1.42392429 -9.57968526 1.68070955 -13.1875 1.9375 C-14.41404297 2.02451172 -15.64058594 2.11152344 -16.90429688 2.20117188 C-24.93839845 2.77352212 -32.96998148 3.37295809 -41 4 C-31.46365267 -3.63034684 -11.73341026 -0.09856186 0 0 Z " fill="#A19F9F" transform="translate(195,200)"/>
<path d="M0 0 C5.97265862 1.21890992 9.8839974 3.45014848 14 8 C15.4375 10.875 15.4375 10.875 16 13 C15.29875 12.2575 14.5975 11.515 13.875 10.75 C11.02281994 8.02182777 8.3236937 6.08697046 5 4 C4.67 4.33 4.34 4.66 4 5 C3.01 5.495 3.01 5.495 2 6 C1.01 5.67 0.02 5.34 -1 5 C-2.89470816 4.9314505 -4.7916834 4.91519628 -6.6875 4.9375 C-7.68136719 4.94652344 -8.67523437 4.95554688 -9.69921875 4.96484375 C-10.45847656 4.97644531 -11.21773437 4.98804688 -12 5 C-11.67 4.34 -11.34 3.68 -11 3 C-8.49609375 2.5859375 -8.49609375 2.5859375 -5.4375 2.375 C-4.42558594 2.30023438 -3.41367188 2.22546875 -2.37109375 2.1484375 C-1.58863281 2.09945312 -0.80617188 2.05046875 0 2 C0 1.34 0 0.68 0 0 Z " fill="#9F9E9E" transform="translate(1459,175)"/>
<path d="M0 0 C-0.33 0.66 -0.66 1.32 -1 2 C-2.94604492 2.50244141 -2.94604492 2.50244141 -5.48046875 2.8515625 C-6.39763672 2.98046875 -7.31480469 3.109375 -8.25976562 3.2421875 C-9.70899414 3.43167969 -9.70899414 3.43167969 -11.1875 3.625 C-12.60772461 3.82609375 -12.60772461 3.82609375 -14.05664062 4.03125 C-18.73629052 4.67131377 -23.26449977 5.17509413 -28 5 C-28 4.34 -28 3.68 -28 3 C-24.64703509 2.49171557 -21.29246657 1.99488543 -17.9375 1.5 C-16.52307617 1.28537109 -16.52307617 1.28537109 -15.08007812 1.06640625 C-9.99267758 0.32190861 -5.1412006 -0.17113566 0 0 Z " fill="#A4A2A2" transform="translate(175,165)"/>
<path d="M0 0 C0.33 1.32 0.66 2.64 1 4 C-3.07723734 5.95031692 -6.31692422 6.21581971 -10.8125 6.125 C-11.97394531 6.10695312 -13.13539062 6.08890625 -14.33203125 6.0703125 C-15.21246094 6.04710937 -16.09289063 6.02390625 -17 6 C-17 5.67 -17 5.34 -17 5 C-15.35 4.67 -13.7 4.34 -12 4 C-12 3.67 -12 3.34 -12 3 C-9.69 3 -7.38 3 -5 3 C-4.67 2.34 -4.34 1.68 -4 1 C-1.9375 0.375 -1.9375 0.375 0 0 Z " fill="#605D5D" transform="translate(1464,218)"/>
<path d="M0 0 C0.33 0 0.66 0 1 0 C1 2.97 1 5.94 1 9 C1.66 9 2.32 9 3 9 C3.66 11.31 4.32 13.62 5 16 C4.01 15.34 3.02 14.68 2 14 C1.34 14.66 0.68 15.32 0 16 C-1.43316898 13.13366205 -1.13200361 10.62764499 -1.125 7.4375 C-1.12757812 6.26058594 -1.13015625 5.08367187 -1.1328125 3.87109375 C-1 1 -1 1 0 0 Z " fill="#585454" transform="translate(1431,195)"/>
<path d="M0 0 C2.12493141 -0.02693575 4.24995912 -0.04636628 6.375 -0.0625 C7.55835938 -0.07410156 8.74171875 -0.08570313 9.9609375 -0.09765625 C13 0 13 0 15 1 C15 1.66 15 2.32 15 3 C10.05 3 5.1 3 0 3 C0 2.01 0 1.02 0 0 Z " fill="#858383" transform="translate(248,7)"/>
<path d="M0 0 C6.48472993 0.73690113 12.69239743 2.35318751 19 4 C19 4.66 19 5.32 19 6 C12.54189755 5.00318287 6.23428168 3.98363508 0 2 C0 1.34 0 0.68 0 0 Z " fill="#ABAAAA" transform="translate(292,172)"/>
<path d="M0 0 C1.125 3.75 1.125 3.75 0 6 C0.66 6 1.32 6 2 6 C2.33 5.34 2.66 4.68 3 4 C2.67 7.96 2.34 11.92 2 16 C1.67 16 1.34 16 1 16 C0.67 13.36 0.34 10.72 0 8 C-0.33 11.3 -0.66 14.6 -1 18 C-1.33 18 -1.66 18 -2 18 C-2.054348 15.9377952 -2.09294961 13.87517184 -2.125 11.8125 C-2.14820313 10.66394531 -2.17140625 9.51539063 -2.1953125 8.33203125 C-2.00484152 5.08259628 -1.39360127 2.91339479 0 0 Z " fill="#A6A4A4" transform="translate(1431,188)"/>
<path d="M0 0 C6.71741434 -0.32503618 12.80511931 0.15433647 19 3 C19.99 4.485 19.99 4.485 21 6 C18.24846929 5.38120598 15.49891102 4.75523814 12.75 4.125 C11.97269531 3.95097656 11.19539063 3.77695312 10.39453125 3.59765625 C9.26337891 3.33662109 9.26337891 3.33662109 8.109375 3.0703125 C7.41811523 2.91320801 6.72685547 2.75610352 6.01464844 2.59423828 C3.85262875 1.95653155 1.98395915 1.06200166 0 0 Z " fill="#888585" transform="translate(266,277)"/>
<path d="M0 0 C0.70511719 0.29648438 1.41023438 0.59296875 2.13671875 0.8984375 C5.00322261 2.0012398 7.84492532 2.83841394 10.8125 3.625 C11.78832031 3.88539063 12.76414062 4.14578125 13.76953125 4.4140625 C14.87361328 4.70410156 14.87361328 4.70410156 16 5 C16 5.33 16 5.66 16 6 C6.30644837 6.76394015 6.30644837 6.76394015 3.15625 4.921875 C0 1.72892442 0 1.72892442 0 0 Z " fill="#3E3A3A" transform="translate(1439,217)"/>
<path d="M0 0 C0.33 0.66 0.66 1.32 1 2 C-0.30208333 3.43229167 -1.60416667 4.86458333 -2.90625 6.296875 C-4.36024492 8.22360515 -4.36024492 8.22360515 -4 12 C-4.66 12 -5.32 12 -6 12 C-6.33 11.34 -6.66 10.68 -7 10 C-8.32 10.33 -9.64 10.66 -11 11 C-11 10.34 -11 9.68 -11 9 C-9.35546875 7.8515625 -9.35546875 7.8515625 -7.1875 6.625 C-4.06566908 4.76295218 -1.8912255 3.19144303 0 0 Z " fill="#A09E9E" transform="translate(1471,209)"/>
<path d="M0 0 C0.66 0 1.32 0 2 0 C1.64950425 3.24208567 1.43778819 4.61527704 -1.0625 6.8125 C-1.701875 7.204375 -2.34125 7.59625 -3 8 C-3.66 7.34 -4.32 6.68 -5 6 C-3.38405168 3.95880212 -1.7143618 1.95927063 0 0 Z " fill="#413D3D" transform="translate(1471,211)"/>
<path d="M0 0 C0 0.66 0 1.32 0 2 C-3.50776784 3.60355101 -6.14354879 4.22036864 -10 4 C-10 3.34 -10 2.68 -10 2 C-3.375 0 -3.375 0 0 0 Z " fill="#B1AEAE" transform="translate(188,14)"/>
<path d="M0 0 C0 0.66 0 1.32 0 2 C-0.99 2.495 -0.99 2.495 -2 3 C-1.01 3.66 -0.02 4.32 1 5 C-0.65 5.66 -2.3 6.32 -4 7 C-4.33 5.35 -4.66 3.7 -5 2 C-2 0 -2 0 0 0 Z " fill="#9C9999" transform="translate(1445,176)"/>
<path d="M0 0 C-0.33 0.66 -0.66 1.32 -1 2 C-3.06640625 2.4140625 -3.06640625 2.4140625 -5.5625 2.625 C-6.38878906 2.69976562 -7.21507812 2.77453125 -8.06640625 2.8515625 C-9.02353516 2.92503906 -9.02353516 2.92503906 -10 3 C-10 2.34 -10 1.68 -10 1 C-6.59437148 0.22157062 -3.49234244 -0.09978121 0 0 Z " fill="#AEACAC" transform="translate(157,167)"/>
<path d="M0 0 C0 0.66 0 1.32 0 2 C-2.70879335 3.35439668 -5.00933268 3.06501451 -8 3 C-8 2.34 -8 1.68 -8 1 C-5.29120665 -0.35439668 -2.99066732 -0.06501451 0 0 Z " fill="#D6D5D5" transform="translate(227,7)"/>
<path d="M0 0 C0.99 0 1.98 0 3 0 C2.34 1.65 1.68 3.3 1 5 C-0.65 5 -2.3 5 -4 5 C-3.67 4.34 -3.34 3.68 -3 3 C-2.34 3 -1.68 3 -1 3 C-0.67 2.01 -0.34 1.02 0 0 Z " fill="#5C5959" transform="translate(1446,175)"/>
<path d="M0 0 C6.75 0.875 6.75 0.875 9 2 C9 2.66 9 3.32 9 4 C4.545 3.01 4.545 3.01 0 2 C0 1.34 0 0.68 0 0 Z " fill="#9F9D9D" transform="translate(292,172)"/>
<path d="M0 0 C2.97 0.33 5.94 0.66 9 1 C9 1.66 9 2.32 9 3 C6.03 2.67 3.06 2.34 0 2 C0 1.34 0 0.68 0 0 Z " fill="#BCBBBB" transform="translate(275,10)"/>
<path d="M0 0 C2.31 0 4.62 0 7 0 C7 0.66 7 1.32 7 2 C2.545 2.495 2.545 2.495 -2 3 C-1.34 2.67 -0.68 2.34 0 2 C0 1.34 0 0.68 0 0 Z " fill="#908D8D" transform="translate(227,7)"/>
<path d="M0 0 C-0.33 0.66 -0.66 1.32 -1 2 C-3.64860427 2.59355614 -6.29197322 2.74209269 -9 3 C-9 2.34 -9 1.68 -9 1 C-5.92677456 0.08941469 -3.19902639 -0.08886184 0 0 Z " fill="#B6B4B4" transform="translate(1252,117)"/>
<path d="M0 0 C5.75 -0.125 5.75 -0.125 8 1 C8 1.66 8 2.32 8 3 C5.36 2.67 2.72 2.34 0 2 C0 1.34 0 0.68 0 0 Z " fill="#DBDBDB" transform="translate(255,7)"/>
<path d="M0 0 C2.475 0.495 2.475 0.495 5 1 C5 1.66 5 2.32 5 3 C5.66 3 6.32 3 7 3 C7.33 4.32 7.66 5.64 8 7 C7.34 6.67 6.68 6.34 6 6 C6 5.34 6 4.68 6 4 C5.195625 3.71125 4.39125 3.4225 3.5625 3.125 C1 2 1 2 0 0 Z " fill="#989696" transform="translate(333,303)"/>
</svg>
